<?xml version="1.0" encoding="utf-8"?>
<!-- Generator: Adobe Illustrator 17.1.0, SVG Export Plug-In . SVG Version: 6.00 Build 0)  -->
<!DOCTYPE svg PUBLIC "-//W3C//DTD SVG 1.1//EN" "http://www.w3.org/Graphics/SVG/1.1/DTD/svg11.dtd">
<svg version="1.1" xmlns="http://www.w3.org/2000/svg" xmlns:xlink="http://www.w3.org/1999/xlink" x="0px" y="0px"
	 viewBox="0 0 612 792" enable-background="new 0 0 612 792" xml:space="preserve">
<g id="Layer_1">
	<g>
		<g>
			<path d="M399.5,282.6c-0.8,3.1-1.7,6.1-2.5,9.1c-0.9,3.3-0.8,6.8-1,10.2c-0.5,8.5-0.8,17-1.1,25.6c-0.5,16.3-0.7,32.6-0.9,48.8
				c-0.3,32.6-0.4,65.2-2,97.8c-0.8,16.5-0.3,32.5,1,49c0.3,4.1,1.1,7.8-1.9,11.1c-2.9,3.1-7.8,2.3-11.6,2.5
				c-7.8,0.3-15.5,1.4-23.2,2.9c-7.4,1.4-14.9,0.5-22.3-0.5c-8-1.1-15.9-1.7-24-1.9c-15.9-0.4-31.8,1-47.7,2
				c-3.1,0.2-6.3,0.4-9.4,0.6c-3.2,0.2-3.2,5.2,0,5c15.9-0.9,31.7-2.3,47.5-2.6c7.6-0.1,15.2,0.1,22.8,0.7
				c7.6,0.6,15.1,2.1,22.8,2.4c7.5,0.3,14.8-1.7,22.1-2.7c3.7-0.5,7.5-0.8,11.3-1c3.7-0.2,7.3,0.2,10.8-1.1c4.2-1.6,7.1-5.3,8-9.6
				c0.7-3.1-0.2-6.7-0.4-9.8c-0.4-4.6-0.8-9.1-1.1-13.7c-1.2-16.4,0.3-32.7,0.9-49.1c0.6-16.3,0.9-32.6,1.1-48.9
				c0.4-32.6,0.3-65.1,1.7-97.7c0.2-4.6,0.4-9.2,0.7-13.8c0.3-4.9,1.9-9.4,3.1-14.1C405.1,280.8,400.3,279.5,399.5,282.6
				L399.5,282.6z"/>
		</g>
	</g>
	<g>
		<g>
			<path d="M397.4,327c0-5.4-5.8-10.4-8.2-15c-3.2-5.9-5.8-11.7-8.1-18c-0.9-2.4-3.3-13.2-7.1-12.6c-3,0.5-7.5,11.5-8.7,14.1
				c-0.9,2-1.5,4.5-2.7,6.3c-3.3,4.9-3.1,2.4-6.6,0.4c-4.2-2.4-8.9-2-13.6-2.2c-4.5-0.2-8.9-0.5-13.4,1c-5,1.6-8.4,5.3-12.7,7.9
				c-6.4,3.9-18.9,2.5-26.4,2.8c-10.5,0.4-19.8-2.3-29.9,2.1c-12.1,5.3,1.7,10.5,8.3,12.4c5.1,1.5,10.4,2,15.5,3.6
				c5.8,1.9,6.5,5.2,10.4,9.4L397.4,327z"/>
			<g>
				<path d="M399.9,327c-0.5-5.6-3.9-9.5-7.1-13.9c-4.2-5.8-7.2-13.4-9.5-20.2c-1.2-3.5-4.5-17.7-11.1-13.4
					c-7.6,5-7.5,16.3-12.9,22.8c0.6-0.7,1,0.1-0.5-1.2c-1-0.8-1.9-1.2-3.1-1.8c-2.5-1.2-5.3-1.4-8-1.6c-6.8-0.5-14.3-1-20.8,1.5
					c-5.4,2-9.1,6.9-14.5,8.7c-5.8,2-12.7,1.3-18.8,1.3c-12.2-0.1-26.4-2.7-37.4,3.9c-8.8,5.3,1.3,11.8,6.5,13.9
					c5.5,2.2,11.3,3,17,4.3c3.4,0.8,6.2,1.9,8.6,4.6c1.4,1.6,3,5.1,5.2,5.7c1.3,0.4,3.2-0.2,4.5-0.4c3.9-0.5,7.7-0.9,11.6-1.4
					c11.7-1.4,23.5-2.8,35.2-4.2c17.5-2.1,35.1-4.1,52.6-6.2c3.2-0.4,3.2-5.4,0-5c-24.3,2.9-48.6,5.7-72.9,8.6
					c-10,1.2-19.9,2.4-29.9,3.5c-1,0.1,0.5-0.1,0.3-0.3c-1.6-1.9-2.9-3.9-4.7-5.7c-4.5-4.4-12.1-4.8-17.8-6
					c-4.6-1-10.1-2.4-13.8-5.4c-2.5-2,5.7-4.3,7.1-4.7c4-1.1,8.3-0.9,12.4-0.7c7.5,0.3,15,0.3,22.5,0.3c6.3,0,12.8-0.5,18.2-4
					c2.9-1.9,5.6-4.2,8.6-5.9c4.5-2.5,10-2.1,15-1.9c4.6,0.2,9.7-0.3,13.5,2.7c1.2,0.9,2.9,2.6,4.6,1.9c4.7-1.9,5.9-8,7.7-12.2
					c1-2.4,2.1-4.7,3.4-7c0.7-1.3,1.5-2.6,2.5-3.7c0.5-0.5,1.8,2.4,1.9,2.7c2.6,5.3,3.9,11.3,6.3,16.7c1.8,4.1,3.7,8.3,6.2,12
					c2.4,3.6,6,6.9,6.4,11.4C395.2,330.1,400.2,330.2,399.9,327z"/>
			</g>
		</g>
		<g>
			<path d="M396.1,331.9l-102.3,10.4c0.9,11.6-6.7,23.5,6.2,31c10.9,6.3,20.2,8.8,31.6,3.4c3.6-1.7,7.4-4.3,11.3-5.5
				c4.9-1.6,8.5-0.7,13.4-0.4c5.3,0.2,10.5-0.9,15.8-0.9c4.6,0,10.4,0.3,14.5-1.7c5.5-2.7,8.4-9.1,10-14.6
				C398.6,345.7,397.2,339.8,396.1,331.9z"/>
			<g>
				<path d="M396.1,329.4c-34.1,3.5-68.2,6.9-102.3,10.4c-1.3,0.1-2.6,1-2.5,2.5c0.6,11.9-5.4,23.8,6.1,32.3
					c5.9,4.4,14,7.1,21.3,7.5c8.2,0.5,15.2-4,22.2-7.5c4.4-2.2,8.9-1.9,13.7-1.5c4.7,0.4,9.3-0.3,14-0.7c7-0.6,14.1,0.8,20.5-2.8
					c5.5-3.1,8.2-9.8,9.9-15.5c2.2-7.6,0.6-15.3-0.5-22.9c-0.5-3.2-5.3-1.8-4.8,1.3c1.7,11.5,3.4,31.1-11.8,34.4
					c-3.1,0.7-6.6,0.4-9.8,0.3c-3.5,0-7,0.5-10.5,0.8c-6.5,0.6-12.9-1.1-19.3,0.7c-6.3,1.7-11.5,6.2-17.9,7.9
					c-7.5,1.9-15-1.1-21.4-4.6c-6.2-3.3-8.3-7.6-7.9-14.5c0.4-5.1,1.6-10.1,1.3-15.2c-0.8,0.8-1.7,1.7-2.5,2.5
					c34.1-3.5,68.2-6.9,102.3-10.4C399.2,334.1,399.3,329.1,396.1,329.4z"/>
			</g>
		</g>
	</g>
	<g>
		<g>
			<path d="M290,352.9c2.1,9.1-1.8,18-4.9,26.5c-3.2,8.6-6.7,17.1-10.6,25.4c-3.8,8.1-7.9,16-12.3,23.7c-4.4,7.8-8.5,15.9-15.3,21.8
				c-2.4,2.1,1.1,5.6,3.5,3.5c6.7-5.8,10.7-13.6,15.1-21.3c5-8.7,9.6-17.7,13.9-26.9c4-8.7,7.7-17.6,11-26.7
				c3.3-9,6.5-17.9,4.3-27.5C294.1,348.4,289.3,349.8,290,352.9L290,352.9z"/>
		</g>
	</g>
</g>
<g id="Layer_2">
	<circle stroke="#FFFFFF" stroke-miterlimit="10" cx="321.7" cy="339.6" r="5.9"/>
	<circle stroke="#FFFFFF" stroke-miterlimit="10" cx="360.9" cy="333.7" r="5.9"/>
</g>
<g id="Layer_3">
	
		<ellipse transform="matrix(0.9924 -0.123 0.123 0.9924 -40.7397 44.919)" fill="#FFFFFF" stroke="#FFFFFF" stroke-miterlimit="10" cx="343.6" cy="352.6" rx="5.3" ry="1.6"/>
	<g>
		<g>
			<path d="M338.9,365.9c-4.4,2.7-3.6,8.6,0.7,11.1c4.6,2.7,10.8,2.6,15.6,0.4c4.9-2.1,5.1-9.3,0.5-11.9c-4.3-2.5-12.2-2.1-16.3,0.5
				c-2.7,1.7-0.2,6.1,2.5,4.3c2-1.3,4.2-1.1,6.5-1.2c1.6,0,7.8,0.1,5.2,3.4c-1.3,1.7-5,1.5-6.9,1.4c-0.8,0-8.1-2.1-5.3-3.8
				C344.1,368.6,341.6,364.2,338.9,365.9L338.9,365.9z"/>
		</g>
	</g>
</g>
<g id="Layer_4">
	<g>
		<path d="M266.4,400.2c2.6-3.9,11.5-3.9,15.7-5.2c5.9-1.8,11.1-3.4,17-1c6,2.4,8.8,8,10.8,13.7c2.1,6.4,11.1,14.4,9.4,21.4
			c-1.6,6.6-10.1,6-14,2.2c-5.2-5-6.5-10.8-14.1-13c-12.1-3.6-22.8,2.1-34,5.5c-8.7,2.6-6.3-8.1-3.5-12.8c3.7-6.2,9.4-9.4,15.6-12.4
			c-4.5-3.5-16.6,13.2-15.9,17.3"/>
		<g>
			<path d="M268.2,402c1.9-2.3,5.2-2.8,8-3.3c3.4-0.6,6.7-1.3,10-2.3c10.8-3.1,17.7,2.1,21.2,12c2.1,6.1,7.2,10.7,9.2,16.9
				c1.3,3.9-1.3,6.4-5,6.3c-3.9-0.1-6.4-3.9-8.5-6.7c-4-5.4-8-8.5-14.7-9.9c-7.6-1.5-15.3,0.7-22.4,3.1c-3.5,1.2-7.3,3.1-11,3.5
				c-2.8,0.3-0.8-5.6-0.4-6.8c2.4-7.1,9.7-11,15.9-14.1c1.7-0.9,1.5-3.4,0-4.3c-4.4-2.7-9.1,2-11.9,5c-3.2,3.4-8.1,9.4-7.7,14.5
				c0.3,3.2,5.3,3.2,5,0c-0.3-3,8.8-17.1,12.1-15.1c0-1.4,0-2.9,0-4.3c-7.8,3.9-15,8.6-18.2,17.1c-1.6,4.3-2.2,12.8,4.3,13.1
				c4.5,0.2,9.1-2.3,13.3-3.7c6.1-2.1,12.2-3.7,18.7-3.2c7,0.5,10.4,4.6,14.3,9.7c2.4,3.1,4.8,5.4,8.6,6.6c6.7,2.2,12.9-2.3,13-9.2
				c0.1-3.7-2.3-7.5-4.2-10.5c-2.6-4.2-4.8-8-6.7-12.5c-3.7-8.7-11.2-14.8-21.1-13.3c-5.1,0.8-10,2.5-15.1,3.4
				c-3.7,0.6-7.7,1.6-10.2,4.6C262.6,400.9,266.1,404.5,268.2,402L268.2,402z"/>
		</g>
	</g>
</g>
<g id="Layer_5">
	<g>
		<path d="M394,405.4c-2.7-1.2-5.9-1.7-8.7-2.8c-2.9-1.2-5.3-3.1-8.2-4.4c-5.3-2.4-10.9-0.4-15.5,2.2c-5.7,3.2-10.1,9.1-14.4,13.7
			c-2.5,2.7-4.1,5.9-6.3,8.8c-2.2,2.9-4.7,6.2-5.8,9.5c-2.4,7,9.2,4.5,13.6,3.1c7.1-2.3,10.4-7.1,15.6-11.2c4.3-3.4,9.5-4,15-2.4
			c5.3,1.5,8.4,9.5,15.3,5.5C395.8,426.7,394,405.4,394,405.4z"/>
		<g>
			<path d="M394.7,403c-5.2-2.1-10-3.6-14.9-6.3c-4.1-2.3-8.4-2.4-12.9-1.3c-9.6,2.3-16.4,11-22.5,18.1c-3.2,3.7-5.7,8.1-8.5,12
				c-1.6,2.3-4.7,6.9-3.5,10c2.2,5.5,9.1,4.2,13.8,3.2c3.9-0.8,7.4-2.4,10.6-4.7c4.1-2.9,7.1-6.9,11.5-9.4
				c5.5-3.1,11.2-0.4,15.4,3.1c2.5,2.1,5.2,3.4,8.5,3c6.1-0.8,5.4-5.6,5.2-10.4c-0.2-5-0.5-10-1-15c-0.3-3.2-5.3-3.2-5,0
				c0.3,3.1,0.5,6.2,0.7,9.2c0.2,2.5,0.3,5,0.3,7.6c0,1,0,2,0,3c0,1.8,0.1,0.6-1.4,0.8c-2.5,0.3-5-2.8-6.9-4.2
				c-2.4-1.8-5.1-2.8-8.1-3.1c-8.2-0.7-13.3,3.4-19,8.7c-4.8,4.5-10.7,7-17.3,7.2c-5.3,0.2-0.2-5.7,1.4-7.9
				c2.5-3.6,4.9-7.5,7.8-10.9c5.5-6.4,11-12.9,19.2-15.6c5.6-1.9,9.8,1.4,14.4,3.9c3.3,1.8,7.2,2.3,10.7,3.7
				C396.3,409,397.6,404.2,394.7,403z"/>
		</g>
	</g>
</g>
<g id="Layer_6">
	<g>
		<g>
			<path d="M254.2,441.8c-2.8,6.6-8,11.6-11.8,17.5c-4.6,7-6.9,15.5-9.2,23.4c-0.9,3.1,3.9,4.4,4.8,1.3c2.3-7.7,4.6-15.3,8.7-22.2
				c3.6-6.1,9-10.9,11.8-17.5C259.8,441.4,255.5,438.8,254.2,441.8L254.2,441.8z"/>
		</g>
	</g>
</g>
<g id="Layer_7">
	<g>
		<g>
			<path d="M373.8,462.6c-7.5-7.1-18.3-11.1-28-14.3c-9.7-3.3-20.1-0.3-27.8,6.1c-15.2,12.6-16.1,33.6-23.8,50.5
				c-1.3,2.9,3,5.5,4.3,2.5c6.7-14.6,8-32.2,18.4-44.9c6.3-7.8,16.2-12.1,26.1-9.9c4.7,1.1,9.3,3.5,13.8,5.3c5.1,2,9.6,4.4,13.6,8.1
				C372.6,468.3,376.1,464.8,373.8,462.6L373.8,462.6z"/>
		</g>
	</g>
</g>
<g id="Layer_8">
	<g>
		<g>
			<path d="M246.7,449.7c-10.5,1.6-21-1.3-31,3.6c-8,3.9-14.3,12-18.3,19.7c-1.5,2.9,2.8,5.4,4.3,2.5c4.1-7.9,10.4-15.5,18.9-18.9
				c8.4-3.4,18.6-0.7,27.4-2C251.2,454.1,249.8,449.2,246.7,449.7L246.7,449.7z"/>
		</g>
	</g>
</g>
<g id="Layer_9">
	<g>
		<g>
			<path d="M255.2,538.9c-13.7,0.5-27.3,1.2-40.7-2.3c-3.1-0.8-4.4,4-1.3,4.8c13.8,3.6,27.9,3,42,2.5
				C258.4,543.8,258.4,538.8,255.2,538.9L255.2,538.9z"/>
		</g>
	</g>
</g>
<g id="Layer_10">
	<g>
		<path d="M216.9,537c5.8-7.7-3.3-20.7-6.6-28c-8-17.7-13.7-36.1-23.9-52.8c-6.2-10.1-18.7-35.6-32.9-22.2
			c-8.7,8.2-0.7,20.4,3.9,28.7c5,8.7,8.1,18,11.7,27.4c3.8,10,9.6,17.5,14.6,26.8c4.2,7.9,9.4,12.3,16.7,17.2
			c5.4,3.6,14.8,9.4,17-0.7"/>
		<g>
			<path d="M219.1,538.2c5.8-8.8-1-19.6-5.1-27.6c-6.6-12.7-11-26.6-16.9-39.7c-4.6-10.2-10.4-20.3-16.8-29.6
				c-4.4-6.4-10.7-13.9-19.2-13.7c-9.9,0.3-14.9,10.7-13.5,19.3c0.9,5.2,3.9,10.2,6.5,14.7c4,7.1,7.2,14.4,10.1,22
				c5,13.2,11.8,25,19,37.1c4.9,8.2,14.1,15.6,22.9,19.3c6.4,2.7,11.8,0.9,13.7-6.1c0.8-3.1-4-4.4-4.8-1.3c-1.6,5.7-6,3.5-9.9,1.4
				c-4.3-2.4-8.3-5.4-11.9-8.8c-3.9-3.6-6.4-8.1-8.9-12.7c-3-5.4-6.4-10.5-9.3-15.9c-6.1-11.3-9-24-15.2-35.2
				c-4.6-8.3-14-23.8,0.3-28.5c7.7-2.5,14.7,8.8,18,13.9c5.2,8,10,16.4,14,25c5.4,11.4,9.7,23.4,14.7,35c3.3,7.7,13.6,20.5,8.1,28.8
				C213,538.4,217.3,540.9,219.1,538.2L219.1,538.2z"/>
		</g>
	</g>
	<g>
		<path d="M298.5,538.3c6-6.7,0.4-20.6-1.2-28.1c-4-18.2-5.9-36.9-11.9-54.5c-3.6-10.6-10.1-37-24.1-25.9
			c-8.5,6.8-3.7,19.8-1.1,28.4c2.8,9.2,4,18.6,5.5,28.2c1.6,10.2,5.4,18.3,8.1,28c2.3,8.2,5.9,13.2,11.3,18.9
			c3.9,4.2,10.9,11,14.2,1.5"/>
		<g>
			<path d="M300.2,540.1c6.5-8.2,2.3-19.4-0.1-28.5c-3.8-14.5-5.3-29.5-8.8-44.1c-2.3-9.8-5.5-19.7-9.4-29c-2.6-6.2-7-14-14.7-13.9
				c-9.5,0.1-13.7,10.8-13.2,18.7c0.3,4.9,1.9,9.8,3.4,14.5c2.4,7.7,3.7,15.6,5,23.6c2.1,13.6,6,27.6,11.3,40.3
				c2.2,5.1,5.8,9.4,9.5,13.4c2.7,3,6,6.3,10.2,7c4.4,0.7,6.8-3,8.2-6.5c1.2-3-3.6-4.3-4.8-1.3c-2.5,6.1-7.4,0.2-10.1-2.6
				c-3.5-3.7-6.5-7.8-8.8-12.4c-2.5-5.2-3.7-11.3-5.5-16.8c-1.8-5.4-3.4-10.9-4.4-16.6c-2-11.6-4-22.8-7.3-34.1
				c-2-7-4.1-22,7.2-22.1c6.1-0.1,9.7,11.6,11.3,15.9c3,8.2,5.6,16.6,7.6,25.1c2.9,12.1,4.6,24.4,7.1,36.5c1.6,8.1,8.5,22,2.7,29.3
				C294.7,539,298.2,542.6,300.2,540.1L300.2,540.1z"/>
		</g>
	</g>
</g>
<g id="Layer_11">
	<path fill="none" stroke="#58595B" stroke-miterlimit="10" d="M378.9,298.6c-1-2.2-4.1-3.6-3.6-6c-3.8,2.8-4.6,9-1.6,12.7
		c1.6-0.2,3.2-0.9,4.3-2.1S379.6,300.1,378.9,298.6z"/>
</g>
<g id="Layer_12">
	<path fill="none" stroke="#FFFFFF" stroke-miterlimit="10" d="M312.8,433.1c0.2,0.1,0.4,0.3,0.6,0.5c0.1,0.1,0.1,0.2,0.2,0.3
		c0.3,0.7,0.4,1.4,0.4,2.2"/>
	<path fill="none" stroke="#FFFFFF" stroke-miterlimit="10" d="M315.6,431.5c0.5,0.4,0.8,1.1,1,1.7c0.2,0.6,0.2,1.3,0.2,2
		c0,0,0.1-0.1,0-0.1"/>
	<path fill="none" stroke="#FFFFFF" stroke-miterlimit="10" d="M317.8,429.8c0.3,0,0.6,0.3,0.7,0.6c0.2,0.4,0.4,0.9,0.4,1.4
		c0.1,0.6,0,1.2,0.1,1.9"/>
</g>
<g id="Layer_13">
	<path fill="none" stroke="#FFFFFF" stroke-miterlimit="10" d="M334.4,432.2c-0.3,0.3-0.5,0.6-0.7,1c-0.5,0.9-0.6,2.1-0.7,3.1"/>
	<path fill="none" stroke="#FFFFFF" stroke-miterlimit="10" d="M336.1,434.6c-0.4,0.2-0.5,0.6-0.6,1c-0.1,0.6-0.3,1.2-0.3,1.8
		c0,0.3,0,0.6,0,0.9"/>
	<path fill="none" stroke="#FFFFFF" stroke-miterlimit="10" d="M338.6,435.5c-0.4,0.5-0.6,1.1-0.6,1.7c0,0.6,0.1,1.2,0.4,1.8
		c0,0.1,0.1,0.2,0.2,0.2"/>
	<path fill="none" stroke="#58595B" stroke-miterlimit="10" d="M159.4,446.1c-0.6,0.7-1.2,1.5-1.3,2.4c-0.1,0.9,0.2,2,0.9,2.5
		c0.5,0.4,1.2,0.6,1.9,0.6c2.7,0,5-1.9,7-3.7c0.9-0.8,1.8-1.6,2.2-2.7c0.6-1.5,0.2-3.4-1.2-4.2c-1.3-0.8-3.3-0.2-3.8,1.3
		c-0.6-1.3-1.8-2.3-3.2-2.4c-1.4-0.1-2.8,1.2-2.5,2.6c0.2,1,1,1.9,0.7,2.8C159.9,445.7,159.7,445.9,159.4,446.1z"/>
	<path fill="none" stroke="#939598" stroke-miterlimit="10" d="M149.7,437.2c0.9,1.3,1.7,2.6,2.5,4"/>
	<path fill="none" stroke="#939598" stroke-miterlimit="10" d="M154.8,431.4c0.9,1.6,1.8,3.3,2.7,4.9"/>
	<path fill="none" stroke="#939598" stroke-miterlimit="10" d="M160.2,429.4c1.3,1,1.1,3.1,2.3,4.3"/>
	<path fill="none" stroke="#939598" stroke-miterlimit="10" d="M167,430.1c0.5,1.4,1.1,2.7,1.6,4.1"/>
	<path fill="none" stroke="#000000" stroke-miterlimit="10" d="M197.4,501.8c-4.8,9.6-7.1,22.3-6,34.4c1.1,12.1,5.4,23.4,11.8,30.5
		c2.8,3.1,5.8,5.6,8.9,7.6c21,13.2,58.2,29.1,61.5,28.3c11.8-2.8,21.6,5.3,36.7-1.6c10.4-4.8,11.9-8.9,16.4-9.7
		c6.2-1,12.1-4.3,18.2-5.8c4.9-1.3,9.9-2.2,14.9-2.7c2-0.2,4.1-0.2,5.8,1.6c2.2,2.3,2.9,7.3,2,11.3c-0.8,4-2.9,7.1-5.1,9.4
		c-11.8,12.4-27.8,6-41.6,11c-4.8,1.7-9.3,4.9-14.1,6.8c-6.1,2.5-12.5,2-18.8,2.7c-22.7,2.4-39.9-7.1-55.9-17.4
		c-7.3-4.7-15.3-6.8-22.9-10.2c-2.4-1.1-4.8-2.2-7.1-4c-4.6-3.8-9.8-10.3-12.9-16.7c-2.6-5.3-4.1-10.1-5.8-15.8
		c-2.9-9.7-3.9-8.2-4.4-11.1c-0.8-4.7-1.2-9.5-1-14.3c0.6-17.2,4.5-34,11.2-47.7c0.6,0.9,1.6,1.3,2,2.5c1-0.2,1.9,1.2,2.5,2.4
		C195.1,495.8,196,499.2,197.4,501.8z"/>
</g>
<g id="Layer_15">
</g>
<g id="Layer_14">
</g>
<g id="Layer_16">
	<path fill="none" stroke="#58595B" stroke-miterlimit="10" d="M270.6,441.4c0.1,0.9-0.4,1.7-1.1,2.3c-0.6,0.6-1.4,1-2.1,1.5
		c-0.8,0.5-1.5,1.2-2.3,1.5c-0.9,0.3-2,0.3-2.6-0.4c-0.4-0.4-0.5-1-0.5-1.6c-0.1-1.5,0.4-3,1.4-4.2c0.3-0.3,0.8-0.6,1-0.2
		c0.3-1.2,0.7-2.4,1.2-3.5c0.3-0.6,0.6-1.2,1.2-1.6c0.5-0.4,1.3-0.6,1.9-0.4c0.7,1.8,0.4,4-0.7,5.5c0.6,0.6,1.6-0.2,2.3,0.2
		C270.5,440.8,270.6,441.1,270.6,441.4z"/>
</g>
<g id="Layer_17">
	<path fill="none" stroke="#58595B" stroke-miterlimit="10" d="M259.2,433.9c0.2-1.7,0.6-3.4,1.2-5c0.2-0.7,0.5-1.4,1-2"/>
	<path fill="none" stroke="#58595B" stroke-miterlimit="10" d="M263.8,429.9c0.2-0.6,0.4-1.3,0.5-1.9c0.1-0.3,0.2-0.6,0.3-0.9
		c0.3-0.6,0.9-1,1.1-1.7"/>
	<path fill="none" stroke="#58595B" stroke-miterlimit="10" d="M267.8,430.9c0.2-1,0.5-1.9,1-2.7c0.4-0.7,0.9-1.3,1.5-1.9"/>
	<path fill="none" stroke="#58595B" stroke-miterlimit="10" d="M270.8,431.3c0.3-0.7,0.7-1.4,1-2.2c0.3-0.6,0.7-1.3,1.3-1.6"/>
</g>
<g id="Layer_18">
	<g>
		<g>
			<path d="M314.9,597.5c-5,4.6-8.1,10.8-8.4,17.6c-0.1,2.5,0.8,4.2,2.9,5.5c2.7,1.8,7.3-1.9,9.6-2.8c9.4-3.7,20.2-4.2,30.2-5.6
				c7.3-1,13.9-4.9,18-11c3.1-4.6,2.8-12.6-1-16.8c-1.7-1.9-3.4-2.5-5.9-2.1c-2.1,0.3-3.8,1.5-6.1,1.6c-2.5,0.1-5,0.8-7.4,1.3
				c-14.2,3.1-30.5,7.6-36.2,22.4c-0.6,1.5,0.9,3.2,2.4,3.2c7.5-0.1,12.1-9.2,16.9-13.7c1.8-1.7,0-5-2.4-4.2
				c-4.5,1.5-7.7,4.8-10.8,8.3c-2.3,2.6-5.7,5-6.3,8.6c-0.2,1.4,0.6,3.4,2.4,3.2c4.8-0.6,11.4-5.6,11.4-10.9c0-1.5-1.6-3-3.2-2.4
				c-4.8,1.9-8.7,6.5-9.4,11.7c-0.3,2.1,1.6,4,3.7,2.8c2.3-1.3,3.6-2.9,4.4-5.4c0.6-1.9-1.3-3.5-3.1-3.1c-3.1,0.7-4.9,3.1-6.3,5.8
				c-1,2.1,0.6,4,2.8,3.7c2-0.3,3.1-1.3,3.9-3.2c0.8-1.9-0.5-4.4-2.8-3.7c-2.3,0.7-3.6,2-4.6,4.1c-1,2.1,1.1,4.8,3.4,3.4
				c4.7-2.9,8.1-7.3,11.7-11.5c2.7-3.2,6.6-8.6,10.9-9.5c-0.9-1.2-1.9-2.4-2.8-3.7c-3.7,8-13.8,11.3-17.1,19.6
				c-0.4,1,0.3,2.3,1.1,2.8c4.7,2.9,9.3-2.1,12.1-5.3c2.2-2.6,4.2-5.4,6.3-8.1c0.7-1,3.8-6.2,5.4-6.1c-0.7-0.4-1.4-0.8-2.2-1.2
				c0.7,1.1-6.3,6.6-7.3,7.4c-2.6,2.4-5,4.8-6.4,8.1c-0.3,0.8,0.1,1.9,0.6,2.4c3.6,3.4,9.5-2.2,11.5-5.1c3.3-4.6,5.5-12.4,11.3-14.4
				c-1.1-0.8-2.1-1.6-3.2-2.4c-0.1,4.7-5.9,8.5-7.2,13.1c-0.7,2.4,2.4,4.2,4.2,2.4c4.2-4.1,6.4-10.1,11.2-13.6c-0.8,0-1.7,0-2.5,0
				c0.1,0.1,0.2,0.2,0.4,0.3c-0.4-0.9-0.8-1.9-1.1-2.8c-0.3,1.6-0.4,3.6-1.6,4.9c1.4,0.6,2.8,1.2,4.3,1.8c-0.2-3,2.5-6.5,5.4-7.1
				c-0.9-0.4-1.9-0.8-2.8-1.1c1.4,1.9,3,2.8,1.4,5.3c-1.1,1.7-3.5,5.2-5.8,5.3c0.8,0.8,1.7,1.7,2.5,2.5c0.3-2.4,1.7-4.7,3.3-6.5
				c0.3-0.4,2.1-2.7,1-0.7c-0.7,1.2-1.6,2.2-2.6,3.2c-0.2,0.2-0.5,0.4-0.7,0.6c-1.1,0.4-1.2,1.1-0.1,2c0.1-0.9,1.1-1.9,1.6-2.5
				c1.5-1.8,4.6-3.8,2-0.1c1.6,0.4,3.1,0.8,4.7,1.3c-0.3-1.2,0-2.2,0.9-3.2c-1-0.1-2-0.3-3-0.4c2.9,3.3-6,8.2-8.2,9.5
				c-5.6,3.2-12.5,4.6-18.8,4c0.7,1.3,1.4,2.5,2.2,3.8c4.2-6.5,13-7.8,17.1-14.7c1.2-2.1-1.3-4.9-3.4-3.4c-6,4.1-13.2,7.3-17.1,13.7
				c-1,1.6,0.3,3.8,2.2,3.8c6.6-0.1,11.7-5.7,16.7-9.3c-1.1-1.1-2.3-2.3-3.4-3.4c-1.2,1.6-2.7,2.9-4.1,4.3c-2,1.9,0.1,4.5,2.4,4.2
				c1.5-0.2,2.8-0.8,4.3-1.3c-0.9-1.2-1.9-2.4-2.8-3.7c-1.5,2.1-5.2,1.8-7.5,2.5c0.4,1.6,0.9,3.2,1.3,4.8c1.7-0.6,3.5-1.1,5.1-1.9
				c2.1-1,3.9-3,6.2-3.5c-1-0.6-2.1-1.2-3.1-1.7c0.2,1.6-7.2,1.7-8.6,2c-3.2,0.6-1.8,5.5,1.3,4.8c5.3-1.1,13.3-0.3,12.1-8.1
				c-0.2-1.4-1.9-2-3.1-1.7c-1.5,0.3-2.6,0.9-3.9,1.8c-2.3,1.6-4.7,2.6-7.4,3.6c-3,1.1-1.8,5.8,1.3,4.8c4.5-1.4,7.4-0.8,10.5-4.8
				c1.3-1.8-0.9-4.3-2.8-3.7c-1.5,0.5-2.7,1-4.3,1.3c0.8,1.4,1.6,2.8,2.4,4.2c1.8-1.7,3.4-3.4,4.9-5.3c1.5-2-1.4-4.9-3.4-3.4
				c-4,2.9-8.9,8.5-14.1,8.6c0.7,1.3,1.4,2.5,2.2,3.8c3.3-5.5,10.1-8.3,15.3-11.9c-1.1-1.1-2.3-2.3-3.4-3.4c-4,6.7-12.9,8-17.1,14.7
				c-1.1,1.7,0.4,3.6,2.2,3.8c8.6,0.7,17.3-1.9,24.5-6.6c5.2-3.4,11.3-9.4,6.1-15.4c-0.8-0.9-2.1-0.9-3-0.4
				c-2.9,1.5-3.7,4.5-3.4,7.5c0.2,2.5,3.2,3.4,4.7,1.3c4.3-6.1-0.6-13.5-7.3-8.4c-2.4,1.8-5.1,4.7-5.6,7.7c-0.4,2.7,2.2,5.4,5,4.4
				c3.9-1.4,12.2-9.3,7.8-13.7c-6.3-6.3-13.1,6.7-13.7,11.4c-0.2,1.3,1.3,2.6,2.5,2.5c4.2-0.3,7.2-3.9,9.6-7
				c1.1-1.4,2.3-3.2,2.5-5.1c0.3-2.9-1.8-3.9-3.3-6c-0.7-1-1.6-1.4-2.8-1.1c-5,1.1-9.4,6.8-9.1,11.9c0.1,2,2.7,3.5,4.3,1.8
				c1.9-2.1,2.3-4.3,2.9-7.1c0.2-1.2-0.2-2.1-1.1-2.8c-0.1-0.1-0.2-0.2-0.4-0.3c-0.7-0.5-1.9-0.5-2.5,0c-5.3,3.9-7.6,9.9-12.2,14.4
				c1.4,0.8,2.8,1.6,4.2,2.4c1.5-5.4,7.2-8.5,7.3-14.4c0-1.6-1.6-2.9-3.2-2.4c-4.3,1.4-7,4.6-9.3,8.4c-2.8,4.6-4.9,10.8-10.7,12.1
				c0.8,0.2,1.6,0.4,2.4,0.6c-0.1-0.1-0.2-0.2-0.4-0.3c0.2,0.8,0.4,1.6,0.6,2.4c2.4-6,10.6-8.1,13-13.9c1.7-4.1-0.5-8.6-5.1-5.6
				c-3.5,2.3-14.6,21.4-18.2,19.2c0.4,0.9,0.8,1.9,1.1,2.8c1.4-3.6,5.8-6.3,8.5-9c3.1-3,6.3-5.4,8.2-9.4c0.9-2-0.6-4.1-2.8-3.7
				c-4.5,0.9-8.1,5.2-11,8.4c-4.1,4.4-7.6,9.9-12.8,13.1c1.1,1.1,2.3,2.3,3.4,3.4c0.2-0.9,0.8-1.5,1.7-1.8c-0.9-1.2-1.9-2.4-2.8-3.7
				c-0.3,0.3-0.6,0.6-0.9,0.9c0.9,1.2,1.9,2.4,2.8,3.7c0.7-1.5,1.4-3.1,3.3-3.5c-1-1-2.1-2.1-3.1-3.1c-0.7,0.8-1.4,1.6-2.1,2.4
				c1.2,0.9,2.4,1.9,3.7,2.8c0.5-3.3,2.6-6.9,5.9-8.2c-1.1-0.8-2.1-1.6-3.2-2.4c0,2.2-4.4,5.6-6.4,5.9c0.8,1.1,1.6,2.1,2.4,3.2
				c0.4-2.6,3.3-4.6,5-6.4c2.6-2.7,4.9-5.8,8.6-7c-0.8-1.4-1.6-2.8-2.4-4.2c-3.4,3.2-8.2,12.2-13.4,12.2c0.8,1.1,1.6,2.1,2.4,3.2
				c4-10.5,14.6-13.7,24.5-16.7c2.7-0.8,5.4-1.5,8.2-2.2c3.2-0.8,7.4-0.4,10.4-1.5c2.4-1,3.8-1.7,5,1.5c1.1,3,0.9,5.8-0.7,8.7
				c-2.9,5.3-9.4,7.7-15,8.7c-6.7,1.2-13.4,1.7-20,3c-2.9,0.6-5.7,1.2-8.5,2c-0.6,0.2-7.7,3.1-7.7,2.6c-0.3-5.3,3.2-10.7,6.9-14.1
				C320.8,598.9,317.2,595.3,314.9,597.5L314.9,597.5z"/>
		</g>
	</g>
	<g>
		<g>
			<path d="M319.8,603.7c0.1-1.3,0.4-2.3,1-3.4c0.8-1.5,0.1-3.2-1.5-3.7c-0.3-0.1-0.7-0.2-1-0.3c0.2,1.5,0.4,3,0.6,4.6
				c3.7-2.5,10.2-4.1,14.6-2.9c3.1,0.8,4.4-4,1.3-4.8c-5.6-1.5-13.6,0.2-18.4,3.4c-1.8,1.2-1.6,3.9,0.6,4.6c0.3,0.1,0.7,0.2,1,0.3
				c-0.5-1.2-1-2.4-1.5-3.7c-1,1.9-1.4,3.8-1.7,5.9C314.5,606.9,319.5,606.9,319.8,603.7L319.8,603.7z"/>
		</g>
	</g>
</g>
<g id="Layer_19">
	<path fill="none" stroke="#000000" stroke-miterlimit="10" d="M385.2,347.8c14-8.3,28.1-16.7,42.1-25"/>
	<path fill="none" stroke="#000000" stroke-miterlimit="10" d="M382.5,350.6c15.7-0.5,30.4-7.5,45.8-10.2"/>
	<path fill="none" stroke="#000000" stroke-miterlimit="10" d="M379.1,353.5c16.3,0.9,32.5,2.1,48.7,3.9"/>
	<path fill="none" stroke="#000000" stroke-miterlimit="10" d="M376,355.9c12.7,1,22.3,12.7,34.7,15.3c3.6,0.7,7.6,0.8,10.4,3.1"/>
	<path fill="none" stroke="#000000" stroke-miterlimit="10" d="M302.5,355.1c-6.5,0.2-13.1,0.5-19.3-1.1c-2.6-0.7-5.2-1.6-7.8-2.2
		c-5.5-1.1-11.3-0.5-16.8-1.9"/>
	<path fill="none" stroke="#000000" stroke-miterlimit="10" d="M257.5,366.6c0,0.3-0.5,0.1-0.4-0.2c0.1-0.3,0.4-0.3,0.6-0.4
		c4.1-0.7,8.3-0.9,12.4-1.5c12.7-1.8,24.9-7.2,37.7-7.4c-14.5,6.5-28.8,12.4-43.5,18.5"/>
	<path fill="none" stroke="#000000" stroke-miterlimit="10" d="M311.5,355.8c-9.5-0.4-20.3-4.1-28.6-8.8c-3.4-1.9-6.7-4.3-10.6-4.7"
		/>
</g>
<g id="Layer_20" display="none">
	<text transform="matrix(0.7917 0 0 1 184.2244 664.8838)" display="inline"><tspan x="0" y="0" font-family="'Bauhaus93'" font-size="40.2506">wanawake </tspan><tspan x="209.2" y="0" fill="#ED1A41" font-family="'Bauhaus93'" font-size="40.2506">blog</tspan></text>
</g>
</svg>
